PathFileType	4	(X/Y/Z)	W12_1_OpenSim.trc																																																																																																																						
DataRate	CameraRate	NumFrames	NumMarkers	Units	OrigDataRate	OrigDataStartFrame	OrigNumFrames																																																																																																																		
100	100	4	40	mm	100	1876	3000																																																																																																																		
Frame#	Time	R.ASIS			R.PSIS			S2			L.PSIS			L.ASIS			R.TH1			R.TH2			R.TH3			R.MKnee			R.Knee			R.SH1			R.SH2			R.SH3			R.SH4			R.Ankle			R.MAnkle			R.Heel			R.MT5			R.MT1			L.TH1			L.TH2			L.TH3			L.TH4			L.MKnee			L.Knee			L.SH1			L.SH2			L.SH3			L.Ankle			L.MAnkle			L.Heel			L.MT5			L.MT1			R.Acr			L.Acr			C7			T10			Clav			Sternum			R.Back		
		X1	Y1	Z1	X2	Y2	Z2	X3	Y3	Z3	X4	Y4	Z4	X5	Y5	Z5	X6	Y6	Z6	X7	Y7	Z7	X8	Y8	Z8	X9	Y9	Z9	X10	Y10	Z10	X11	Y11	Z11	X12	Y12	Z12	X13	Y13	Z13	X14	Y14	Z14	X15	Y15	Z15	X16	Y16	Z16	X17	Y17	Z17	X18	Y18	Z18	X19	Y19	Z19	X20	Y20	Z20	X21	Y21	Z21	X22	Y22	Z22	X23	Y23	Z23	X24	Y24	Z24	X25	Y25	Z25	X26	Y26	Z26	X27	Y27	Z27	X28	Y28	Z28	X29	Y29	Z29	X30	Y30	Z30	X31	Y31	Z31	X32	Y32	Z32	X33	Y33	Z33	X34	Y34	Z34	X35	Y35	Z35	X36	Y36	Z36	X37	Y37	Z37	X38	Y38	Z38	X39	Y39	Z39	X40	Y40	Z40
1876	18.75	1009.4454	1038.7499	-371.5997	821.2384	1046.0531	-472.8443	813.2721	1039.9485	-517.8641	819.5826	1043.7064	-568.045	997.4536	1033.3298	-666.8415	939.0165	708.3884	-364.5928	858.9263	720.2364	-350.5783	841.458	612.7839	-371.3615	839.262	494.3044	-505.6858	837.1246	492.3496	-388.9588	794.2153	328.6354	-395.2546	762.2761	223.7904	-420.8303	714.7939	351.6155	-383.2379	686.8201	242.6789	-401.1435	654.0645	85.2174	-424.0247	697.1055	100.6953	-515.7316	594.0849	51.4988	-485.3521	761.9832	36.527	-390.9373	814.298	38.9682	-477.3689	1062.4454	760.8599	-682.492	1094.1558	657.064	-674.0862	984.7076	732.0026	-697.3666	1019.5429	628.8881	-682.0373	1123.7897	506.0223	-555.0723	1119.1212	514.3506	-666.5586	1163.7515	396.4449	-691.8434	1086.1936	368.7756	-683.2212	1126.6547	266.8072	-677.4672	1262.5	92.9406	-685.6378	1290.8234	118.6564	-591.4271	1223.6923	31.7403	-626.1233	1380.6636	93.771	-709.6128	1414.8119	127.2368	-613.4239	986.4482	1448.5143	-369.8981	924.6042	1417.6809	-689.613	899.4033	1474.7573	-525.6143	853.7258	1150.4327	-512.4103	1037.1005	1376.5573	-539.1151	1059.345	1232.5952	-525.2399	833.7648	1386.8207	-423.2121
1877	18.76	1010.1589	1036.5269	-372.9335	822.0399	1043.7148	-474.457	814.079	1037.6826	-519.483	820.3339	1041.5442	-569.6627	998.1752	1031.2976	-668.473	938.2584	706.4736	-365.847	858.2873	718.868	-351.944	839.9971	611.5313	-372.4619	836.9186	492.9385	-506.6106	834.6083	491.0788	-389.9034	788.4551	328.0774	-395.9363	754.2883	223.8386	-421.1683	709.4635	352.7087	-383.7871	679.2697	244.3238	-401.4592	643.1626	87.0318	-423.6666	686.4522	102.2715	-515.3628	582.5757	54.5034	-484.9754	750.1924	36.5494	-390.806	802.4996	38.9498	-477.3686	1064.7479	759.9135	-682.9079	1096.87	656.3362	-673.7855	987.1724	730.6771	-697.7696	1022.3959	627.8066	-681.7483	1127.186	506.46	-554.6366	1121.6658	513.6866	-665.8017	1165.5389	394.7124	-690.5041	1087.8445	367.4908	-681.1647	1127.8818	265.4305	-674.807	1262.2206	91.6189	-682.6897	1292.1169	117.3959	-588.7395	1223.88	31.0742	-622.27	1379.9022	91.7321	-708.4918	1415.7854	125.0476	-612.9181	987.1932	1446.5095	-371.4514	924.9856	1415.6228	-691.042	899.8859	1472.7575	-527.0183	854.5756	1148.3899	-513.6172	1037.7382	1374.5658	-540.6113	1060.0575	1230.5196	-526.8116	834.4032	1384.7978	-424.5122
1878	18.77	1011.0552	1034.3998	-374.3376	823.0198	1041.4896	-476.2069	815.0926	1035.5488	-521.2471	821.3228	1039.5436	-571.4193	999.1444	1029.5168	-670.213	937.8956	704.6178	-367.2223	858.0169	717.4747	-353.4521	839.0359	610.2368	-373.6729	835.2684	491.5064	-507.6132	832.7342	489.8036	-390.8966	783.1154	327.6281	-396.6531	746.6197	224.0992	-421.4356	704.6386	354.0222	-384.404	672.0846	246.2774	-401.7735	632.4701	89.1772	-423.2111	676.0504	104.1502	-514.8762	571.2213	58.0785	-484.5122	738.4989	36.5428	-390.6098	790.7299	38.8731	-477.3485	1067.4741	759.3001	-683.4617	1100.0244	655.965	-673.4908	990.0448	729.6412	-698.1627	1025.7152	627.056	-681.3632	1131.0894	507.2897	-554.1966	1124.6582	513.3331	-664.9421	1167.3855	392.959	-688.886	1089.3844	366.7218	-679.2078	1128.2395	264.3084	-672.2837	1259.5957	90.0613	-679.8106	1290.9116	115.0487	-585.8792	1220.7783	30.5025	-618.9267	1376.7581	88.1813	-706.9609	1414.3486	120.3575	-611.712	987.9926	1444.6207	-373.1031	925.3942	1413.7028	-692.5681	900.3944	1470.8849	-528.5027	855.6129	1146.4575	-514.9114	1038.4493	1372.7592	-542.215	1060.8943	1228.6363	-528.4976	835.1041	1382.8728	-425.8902
1879	18.78	1012.177	1032.4122	-375.8138	824.2106	1039.4515	-478.0818	816.3598	1033.6201	-523.1443	822.613	1037.7717	-573.3011	1000.4245	1028.0404	-672.0232	937.9699	702.8467	-368.7064	858.1467	716.0683	-355.1139	838.6273	608.9052	-374.992	834.3964	489.9984	-508.6866	831.5821	488.5369	-391.9231	778.2546	327.3286	-397.3766	739.3313	224.618	-421.6097	700.389	355.6023	-385.1009	665.326	248.6017	-402.0831	622.0606	91.7094	-422.6448	665.9783	106.3626	-514.2552	560.1021	62.32	-483.9595	726.9278	36.4937	-390.3389	778.9942	38.7203	-477.3087	1070.4928	758.9014	-684.2057	1103.4033	655.8004	-673.2794	993.1641	728.8484	-698.5934	1029.2544	626.5544	-680.9529	1135.0736	508.3044	-553.7802	1127.8566	513.1959	-664.0726	1169.1982	391.2428	-687.1094	1090.7783	366.3793	-677.4833	1127.873	263.4172	-670.0466	1255.1559	88.426	-677.1491	1287.5923	111.8971	-582.9844	1214.9757	30.1555	-616.2423	1371.7728	83.4655	-705.0242	1410.892	113.6569	-609.7984	988.8373	1442.8826	-374.84	925.8341	1411.9615	-694.1941	900.9272	1469.1796	-530.0648	856.846	1144.6645	-516.2795	1039.2358	1371.1879	-543.9257	1061.8727	1227.0022	-530.2906	835.8539	1381.078	-427.3504
